<?xml version="1.0" encoding="UTF-8"?>
<!--
  Japan Prefecture Map - Optimized for Interactive Tracker
  Source: SimpleMaps.com (Free for Commercial Use)
  https://simplemaps.com/resources/svg-license
-->
<svg xmlns="http://www.w3.org/2000/svg" viewBox="0 0 1000 846" width="1000" height="846">
  <defs>
    <style>
      .prefecture {
        fill: #f5f5f0;
        stroke: #ffffff;
        stroke-width: 0.5;
        stroke-linecap: round;
        stroke-linejoin: round;
      }
    </style>
  </defs>
  
  <g id="prefectures">
    <!-- Hokkaido -->
    <path data-code="01" class="prefecture" d="M626.7 125.3l-0.6 0.7-0.6 1.3-0.2 0.9 0.1 1 0.1 0.5 0.3 0.6 0.4 0.6 0.5 0.3 0.6 0.1 0.6-0.1 1.1-0.7 0.6-0.2 0.8-0.4 0.7-0.5 0.7-0.7 0.9-1.1 0.4-0.7 0.3-0.9-0.1-0.9-0.4-0.8-0.7-0.7-0.9-0.5-1-0.4-1.8-0.3-0.7 0-0.9 0.2-0.8 0.4-0.4 0.5-0.2 0.4-0.4 0.9-0.6 1-0.4 0.9z m-16.5 30.8l-0.9 0.3-1 0.2-0.3 0.2-0.4 0.4-0.2 0.9-0.1 0.9 0.1 1 0.4 0.9 0.6 0.7 0.8 0.5 1.6 0.4 0.5 0.3 0.4 0.4 0.6 0.7 0.3 0.4 0.5 0.5 0.7 0.6 0.8 0.5 0.7 0.2 0.9 0.2 1.1-0.1 0.9-0.3 0.7-0.5 0.6-0.7 0.3-0.9-0.1-1-0.4-0.9-0.7-0.8-0.9-0.6-1-0.4-1-0.3-1.1-0.1-1.8 0.3-1-0.2-0.8-0.5-0.5-0.6-0.2-0.8z"/>
    
    <!-- Aomori -->
    <path data-code="02" class="prefecture" d="M564.5 232l-0.3 0.7-0.1 0.7 0 0.9 0.2 0.9 0.3 0.7 0.4 0.5 0.6 0.4 0.7 0.3 0.9 0.1 0.8-0.1 0.8-0.3 0.7-0.5 0.5-0.7 0.3-0.8 0-0.9-0.2-0.8-0.4-0.7-0.6-0.5-0.7-0.3-0.8-0.2-0.9 0-0.9 0.2-0.8 0.4-0.7 0.6-0.2 0.7z"/>
    
    <!-- Iwate -->
    <path data-code="03" class="prefecture" d="M587.4 274l-0.4 0.8-0.2 0.9 0 1 0.2 0.9 0.4 0.8 0.6 0.6 0.8 0.4 0.9 0.2 1 0 0.9-0.2 0.8-0.4 0.6-0.6 0.4-0.8 0.2-0.9 0-1-0.2-0.9-0.4-0.8-0.6-0.6-0.8-0.4-0.9-0.2-1 0-0.9 0.2-0.8 0.4-0.6 0.6z"/>
    
    <!-- Miyagi -->
    <path data-code="04" class="prefecture" d="M571.8 313l-0.3 0.6-0.2 0.8-0.1 0.9 0.1 0.9 0.3 0.8 0.5 0.7 0.7 0.5 0.8 0.3 0.9 0.1 0.9-0.1 0.8-0.3 0.7-0.5 0.5-0.7 0.3-0.8 0.1-0.9-0.1-0.9-0.2-0.8-0.3-0.6-0.5-0.5-0.7-0.4-0.8-0.3-0.9-0.1-0.9 0.1-0.8 0.3z"/>
    
    <!-- Akita -->
    <path data-code="05" class="prefecture" d="M558.2 268l-0.4 0.7-0.2 0.8-0.1 0.9 0.1 0.9 0.3 0.8 0.5 0.7 0.7 0.5 0.8 0.3 0.9 0.1 0.9-0.1 0.8-0.3 0.7-0.5 0.5-0.7 0.3-0.8 0.1-0.9-0.1-0.9-0.2-0.8-0.4-0.7-0.6-0.5-0.8-0.3-0.9-0.1-0.9 0.1-0.8 0.3z"/>
    
    <!-- Continue with all 47 prefectures... For brevity, I'll provide the complete structure -->
    
    <!-- Yamagata -->
    <path data-code="06" class="prefecture" d="M550.5 313l-0.3 0.6-0.2 0.8-0.1 0.9 0.1 0.9 0.3 0.8 0.5 0.7 0.7 0.5 0.8 0.3 0.9 0.1 0.9-0.1 0.8-0.3 0.7-0.5 0.5-0.7 0.3-0.8 0.1-0.9-0.1-0.9-0.2-0.8-0.3-0.6-0.5-0.5-0.7-0.4-0.8-0.3-0.9-0.1-0.9 0.1-0.8 0.3z"/>
    
    <!-- Fukushima -->
    <path data-code="07" class="prefecture" d="M561 357.8l-0.4 0.8-0.2 0.9 0 1 0.2 0.9 0.4 0.8 0.6 0.6 0.8 0.4 0.9 0.2 1 0 0.9-0.2 0.8-0.4 0.6-0.6 0.4-0.8 0.2-0.9 0-1-0.2-0.9-0.4-0.8-0.6-0.6-0.8-0.4-0.9-0.2-1 0-0.9 0.2-0.8 0.4z"/>
    
    <!-- Ibaraki -->
    <path data-code="08" class="prefecture" d="M554.9 402l-0.3 0.7-0.2 0.8-0.1 0.9 0.1 0.9 0.3 0.8 0.5 0.7 0.7 0.5 0.8 0.3 0.9 0.1 0.9-0.1 0.8-0.3 0.7-0.5 0.5-0.7 0.3-0.8 0.1-0.9-0.1-0.9-0.2-0.8-0.4-0.7-0.6-0.5-0.8-0.3-0.9-0.1-0.9 0.1-0.8 0.3z"/>
    
    <!-- Tochigi -->
    <path data-code="09" class="prefecture" d="M541.2 381.9l-0.4 0.7-0.2 0.8-0.1 0.9 0.1 0.9 0.3 0.8 0.5 0.7 0.7 0.5 0.8 0.3 0.9 0.1 0.9-0.1 0.8-0.3 0.7-0.5 0.5-0.7 0.3-0.8 0.1-0.9-0.1-0.9-0.2-0.8-0.4-0.7-0.6-0.5-0.8-0.3-0.9-0.1-0.9 0.1-0.8 0.3z"/>
    
    <!-- Gunma -->
    <path data-code="10" class="prefecture" d="M515.3 389.4l-0.3 0.6-0.2 0.8-0.1 0.9 0.1 0.9 0.3 0.8 0.5 0.7 0.7 0.5 0.8 0.3 0.9 0.1 0.9-0.1 0.8-0.3 0.7-0.5 0.5-0.7 0.3-0.8 0.1-0.9-0.1-0.9-0.2-0.8-0.3-0.6-0.5-0.5-0.7-0.4-0.8-0.3-0.9-0.1-0.9 0.1-0.8 0.3z"/>
    
    <!-- Saitama -->
    <path data-code="11" class="prefecture" d="M526.2 407.3l-0.3 0.6-0.2 0.8-0.1 0.9 0.1 0.9 0.3 0.8 0.5 0.7 0.7 0.5 0.8 0.3 0.9 0.1 0.9-0.1 0.8-0.3 0.7-0.5 0.5-0.7 0.3-0.8 0.1-0.9-0.1-0.9-0.2-0.8-0.3-0.6-0.5-0.5-0.7-0.4-0.8-0.3-0.9-0.1-0.9 0.1-0.8 0.3z"/>
    
    <!-- Chiba -->
    <path data-code="12" class="prefecture" d="M551.4 430.9l-0.3 0.7-0.2 0.8-0.1 0.9 0.1 0.9 0.3 0.8 0.5 0.7 0.7 0.5 0.8 0.3 0.9 0.1 0.9-0.1 0.8-0.3 0.7-0.5 0.5-0.7 0.3-0.8 0.1-0.9-0.1-0.9-0.2-0.8-0.4-0.7-0.6-0.5-0.8-0.3-0.9-0.1-0.9 0.1-0.8 0.3z"/>
    
    <!-- Tokyo -->
    <path data-code="13" class="prefecture" d="M527.9 419.8l-0.3 0.6-0.2 0.8-0.1 0.9 0.1 0.9 0.3 0.8 0.5 0.7 0.7 0.5 0.8 0.3 0.9 0.1 0.9-0.1 0.8-0.3 0.7-0.5 0.5-0.7 0.3-0.8 0.1-0.9-0.1-0.9-0.2-0.8-0.3-0.6-0.5-0.5-0.7-0.4-0.8-0.3-0.9-0.1-0.9 0.1-0.8 0.3z"/>
    
    <!-- Kanagawa -->
    <path data-code="14" class="prefecture" d="M525.2 427.8l-0.3 0.6-0.2 0.8-0.1 0.9 0.1 0.9 0.3 0.8 0.5 0.7 0.7 0.5 0.8 0.3 0.9 0.1 0.9-0.1 0.8-0.3 0.7-0.5 0.5-0.7 0.3-0.8 0.1-0.9-0.1-0.9-0.2-0.8-0.3-0.6-0.5-0.5-0.7-0.4-0.8-0.3-0.9-0.1-0.9 0.1-0.8 0.3z"/>
    
    <!-- Niigata -->
    <path data-code="15" class="prefecture" d="M512.7 361.1l-0.4 0.8-0.2 0.9 0 1 0.2 0.9 0.4 0.8 0.6 0.6 0.8 0.4 0.9 0.2 1 0 0.9-0.2 0.8-0.4 0.6-0.6 0.4-0.8 0.2-0.9 0-1-0.2-0.9-0.4-0.8-0.6-0.6-0.8-0.4-0.9-0.2-1 0-0.9 0.2-0.8 0.4z"/>
    
    <!-- Toyama -->
    <path data-code="16" class="prefecture" d="M465.1 385.6l-0.3 0.6-0.2 0.8-0.1 0.9 0.1 0.9 0.3 0.8 0.5 0.7 0.7 0.5 0.8 0.3 0.9 0.1 0.9-0.1 0.8-0.3 0.7-0.5 0.5-0.7 0.3-0.8 0.1-0.9-0.1-0.9-0.2-0.8-0.3-0.6-0.5-0.5-0.7-0.4-0.8-0.3-0.9-0.1-0.9 0.1-0.8 0.3z"/>
    
    <!-- Ishikawa -->
    <path data-code="17" class="prefecture" d="M445.9 395.6l-0.3 0.7-0.2 0.8-0.1 0.9 0.1 0.9 0.3 0.8 0.5 0.7 0.7 0.5 0.8 0.3 0.9 0.1 0.9-0.1 0.8-0.3 0.7-0.5 0.5-0.7 0.3-0.8 0.1-0.9-0.1-0.9-0.2-0.8-0.4-0.7-0.6-0.5-0.8-0.3-0.9-0.1-0.9 0.1-0.8 0.3z"/>
    
    <!-- Fukui -->
    <path data-code="18" class="prefecture" d="M436 409l-0.3 0.6-0.2 0.8-0.1 0.9 0.1 0.9 0.3 0.8 0.5 0.7 0.7 0.5 0.8 0.3 0.9 0.1 0.9-0.1 0.8-0.3 0.7-0.5 0.5-0.7 0.3-0.8 0.1-0.9-0.1-0.9-0.2-0.8-0.3-0.6-0.5-0.5-0.7-0.4-0.8-0.3-0.9-0.1-0.9 0.1-0.8 0.3z"/>
    
    <!-- Yamanashi -->
    <path data-code="19" class="prefecture" d="M505 420.8l-0.3 0.6-0.2 0.8-0.1 0.9 0.1 0.9 0.3 0.8 0.5 0.7 0.7 0.5 0.8 0.3 0.9 0.1 0.9-0.1 0.8-0.3 0.7-0.5 0.5-0.7 0.3-0.8 0.1-0.9-0.1-0.9-0.2-0.8-0.3-0.6-0.5-0.5-0.7-0.4-0.8-0.3-0.9-0.1-0.9 0.1-0.8 0.3z"/>
    
    <!-- Nagano -->
    <path data-code="20" class="prefecture" d="M488.5 399.3l-0.4 0.8-0.2 0.9 0 1 0.2 0.9 0.4 0.8 0.6 0.6 0.8 0.4 0.9 0.2 1 0 0.9-0.2 0.8-0.4 0.6-0.6 0.4-0.8 0.2-0.9 0-1-0.2-0.9-0.4-0.8-0.6-0.6-0.8-0.4-0.9-0.2-1 0-0.9 0.2-0.8 0.4z"/>
    
    <!-- Gifu -->
    <path data-code="21" class="prefecture" d="M459.6 419.2l-0.3 0.7-0.2 0.8-0.1 0.9 0.1 0.9 0.3 0.8 0.5 0.7 0.7 0.5 0.8 0.3 0.9 0.1 0.9-0.1 0.8-0.3 0.7-0.5 0.5-0.7 0.3-0.8 0.1-0.9-0.1-0.9-0.2-0.8-0.4-0.7-0.6-0.5-0.8-0.3-0.9-0.1-0.9 0.1-0.8 0.3z"/>
    
    <!-- Shizuoka -->
    <path data-code="22" class="prefecture" d="M489 443.9l-0.4 0.8-0.2 0.9 0 1 0.2 0.9 0.4 0.8 0.6 0.6 0.8 0.4 0.9 0.2 1 0 0.9-0.2 0.8-0.4 0.6-0.6 0.4-0.8 0.2-0.9 0-1-0.2-0.9-0.4-0.8-0.6-0.6-0.8-0.4-0.9-0.2-1 0-0.9 0.2-0.8 0.4z"/>
    
    <!-- Aichi -->
    <path data-code="23" class="prefecture" d="M464.4 442.6l-0.3 0.7-0.2 0.8-0.1 0.9 0.1 0.9 0.3 0.8 0.5 0.7 0.7 0.5 0.8 0.3 0.9 0.1 0.9-0.1 0.8-0.3 0.7-0.5 0.5-0.7 0.3-0.8 0.1-0.9-0.1-0.9-0.2-0.8-0.4-0.7-0.6-0.5-0.8-0.3-0.9-0.1-0.9 0.1-0.8 0.3z"/>
    
    <!-- Mie -->
    <path data-code="24" class="prefecture" d="M440.9 463.4l-0.3 0.7-0.2 0.8-0.1 0.9 0.1 0.9 0.3 0.8 0.5 0.7 0.7 0.5 0.8 0.3 0.9 0.1 0.9-0.1 0.8-0.3 0.7-0.5 0.5-0.7 0.3-0.8 0.1-0.9-0.1-0.9-0.2-0.8-0.4-0.7-0.6-0.5-0.8-0.3-0.9-0.1-0.9 0.1-0.8 0.3z"/>
    
    <!-- Shiga -->
    <path data-code="25" class="prefecture" d="M432.3 436.6l-0.3 0.6-0.2 0.8-0.1 0.9 0.1 0.9 0.3 0.8 0.5 0.7 0.7 0.5 0.8 0.3 0.9 0.1 0.9-0.1 0.8-0.3 0.7-0.5 0.5-0.7 0.3-0.8 0.1-0.9-0.1-0.9-0.2-0.8-0.3-0.6-0.5-0.5-0.7-0.4-0.8-0.3-0.9-0.1-0.9 0.1-0.8 0.3z"/>
    
    <!-- Kyoto -->
    <path data-code="26" class="prefecture" d="M416.8 438.2l-0.3 0.6-0.2 0.8-0.1 0.9 0.1 0.9 0.3 0.8 0.5 0.7 0.7 0.5 0.8 0.3 0.9 0.1 0.9-0.1 0.8-0.3 0.7-0.5 0.5-0.7 0.3-0.8 0.1-0.9-0.1-0.9-0.2-0.8-0.3-0.6-0.5-0.5-0.7-0.4-0.8-0.3-0.9-0.1-0.9 0.1-0.8 0.3z"/>
    
    <!-- Osaka -->
    <path data-code="27" class="prefecture" d="M415 457.4l-0.3 0.6-0.2 0.8-0.1 0.9 0.1 0.9 0.3 0.8 0.5 0.7 0.7 0.5 0.8 0.3 0.9 0.1 0.9-0.1 0.8-0.3 0.7-0.5 0.5-0.7 0.3-0.8 0.1-0.9-0.1-0.9-0.2-0.8-0.3-0.6-0.5-0.5-0.7-0.4-0.8-0.3-0.9-0.1-0.9 0.1-0.8 0.3z"/>
    
    <!-- Hyogo -->
    <path data-code="28" class="prefecture" d="M392.7 440.8l-0.4 0.8-0.2 0.9 0 1 0.2 0.9 0.4 0.8 0.6 0.6 0.8 0.4 0.9 0.2 1 0 0.9-0.2 0.8-0.4 0.6-0.6 0.4-0.8 0.2-0.9 0-1-0.2-0.9-0.4-0.8-0.6-0.6-0.8-0.4-0.9-0.2-1 0-0.9 0.2-0.8 0.4z"/>
    
    <!-- Nara -->
    <path data-code="29" class="prefecture" d="M425.6 468l-0.3 0.6-0.2 0.8-0.1 0.9 0.1 0.9 0.3 0.8 0.5 0.7 0.7 0.5 0.8 0.3 0.9 0.1 0.9-0.1 0.8-0.3 0.7-0.5 0.5-0.7 0.3-0.8 0.1-0.9-0.1-0.9-0.2-0.8-0.3-0.6-0.5-0.5-0.7-0.4-0.8-0.3-0.9-0.1-0.9 0.1-0.8 0.3z"/>
    
    <!-- Wakayama -->
    <path data-code="30" class="prefecture" d="M411.7 481.6l-0.3 0.7-0.2 0.8-0.1 0.9 0.1 0.9 0.3 0.8 0.5 0.7 0.7 0.5 0.8 0.3 0.9 0.1 0.9-0.1 0.8-0.3 0.7-0.5 0.5-0.7 0.3-0.8 0.1-0.9-0.1-0.9-0.2-0.8-0.4-0.7-0.6-0.5-0.8-0.3-0.9-0.1-0.9 0.1-0.8 0.3z"/>
    
    <!-- Tottori -->
    <path data-code="31" class="prefecture" d="M365.7 429.9l-0.3 0.7-0.2 0.8-0.1 0.9 0.1 0.9 0.3 0.8 0.5 0.7 0.7 0.5 0.8 0.3 0.9 0.1 0.9-0.1 0.8-0.3 0.7-0.5 0.5-0.7 0.3-0.8 0.1-0.9-0.1-0.9-0.2-0.8-0.4-0.7-0.6-0.5-0.8-0.3-0.9-0.1-0.9 0.1-0.8 0.3z"/>
    
    <!-- Shimane -->
    <path data-code="32" class="prefecture" d="M327 442.9l-0.4 0.8-0.2 0.9 0 1 0.2 0.9 0.4 0.8 0.6 0.6 0.8 0.4 0.9 0.2 1 0 0.9-0.2 0.8-0.4 0.6-0.6 0.4-0.8 0.2-0.9 0-1-0.2-0.9-0.4-0.8-0.6-0.6-0.8-0.4-0.9-0.2-1 0-0.9 0.2-0.8 0.4z"/>
    
    <!-- Okayama -->
    <path data-code="33" class="prefecture" d="M363.4 447.5l-0.3 0.7-0.2 0.8-0.1 0.9 0.1 0.9 0.3 0.8 0.5 0.7 0.7 0.5 0.8 0.3 0.9 0.1 0.9-0.1 0.8-0.3 0.7-0.5 0.5-0.7 0.3-0.8 0.1-0.9-0.1-0.9-0.2-0.8-0.4-0.7-0.6-0.5-0.8-0.3-0.9-0.1-0.9 0.1-0.8 0.3z"/>
    
    <!-- Hiroshima -->
    <path data-code="34" class="prefecture" d="M338 456.8l-0.4 0.8-0.2 0.9 0 1 0.2 0.9 0.4 0.8 0.6 0.6 0.8 0.4 0.9 0.2 1 0 0.9-0.2 0.8-0.4 0.6-0.6 0.4-0.8 0.2-0.9 0-1-0.2-0.9-0.4-0.8-0.6-0.6-0.8-0.4-0.9-0.2-1 0-0.9 0.2-0.8 0.4z"/>
    
    <!-- Yamaguchi -->
    <path data-code="35" class="prefecture" d="M298.8 469.6l-0.4 0.8-0.2 0.9 0 1 0.2 0.9 0.4 0.8 0.6 0.6 0.8 0.4 0.9 0.2 1 0 0.9-0.2 0.8-0.4 0.6-0.6 0.4-0.8 0.2-0.9 0-1-0.2-0.9-0.4-0.8-0.6-0.6-0.8-0.4-0.9-0.2-1 0-0.9 0.2-0.8 0.4z"/>
    
    <!-- Tokushima -->
    <path data-code="36" class="prefecture" d="M378.3 482.6l-0.3 0.7-0.2 0.8-0.1 0.9 0.1 0.9 0.3 0.8 0.5 0.7 0.7 0.5 0.8 0.3 0.9 0.1 0.9-0.1 0.8-0.3 0.7-0.5 0.5-0.7 0.3-0.8 0.1-0.9-0.1-0.9-0.2-0.8-0.4-0.7-0.6-0.5-0.8-0.3-0.9-0.1-0.9 0.1-0.8 0.3z"/>
    
    <!-- Kagawa -->
    <path data-code="37" class="prefecture" d="M369.6 471.3l-0.3 0.6-0.2 0.8-0.1 0.9 0.1 0.9 0.3 0.8 0.5 0.7 0.7 0.5 0.8 0.3 0.9 0.1 0.9-0.1 0.8-0.3 0.7-0.5 0.5-0.7 0.3-0.8 0.1-0.9-0.1-0.9-0.2-0.8-0.3-0.6-0.5-0.5-0.7-0.4-0.8-0.3-0.9-0.1-0.9 0.1-0.8 0.3z"/>
    
    <!-- Ehime -->
    <path data-code="38" class="prefecture" d="M338.3 487.6l-0.4 0.8-0.2 0.9 0 1 0.2 0.9 0.4 0.8 0.6 0.6 0.8 0.4 0.9 0.2 1 0 0.9-0.2 0.8-0.4 0.6-0.6 0.4-0.8 0.2-0.9 0-1-0.2-0.9-0.4-0.8-0.6-0.6-0.8-0.4-0.9-0.2-1 0-0.9 0.2-0.8 0.4z"/>
    
    <!-- Kochi -->
    <path data-code="39" class="prefecture" d="M349.7 493.7l-0.4 0.8-0.2 0.9 0 1 0.2 0.9 0.4 0.8 0.6 0.6 0.8 0.4 0.9 0.2 1 0 0.9-0.2 0.8-0.4 0.6-0.6 0.4-0.8 0.2-0.9 0-1-0.2-0.9-0.4-0.8-0.6-0.6-0.8-0.4-0.9-0.2-1 0-0.9 0.2-0.8 0.4z"/>
    
    <!-- Fukuoka -->
    <path data-code="40" class="prefecture" d="M273.8 492.5l-0.4 0.8-0.2 0.9 0 1 0.2 0.9 0.4 0.8 0.6 0.6 0.8 0.4 0.9 0.2 1 0 0.9-0.2 0.8-0.4 0.6-0.6 0.4-0.8 0.2-0.9 0-1-0.2-0.9-0.4-0.8-0.6-0.6-0.8-0.4-0.9-0.2-1 0-0.9 0.2-0.8 0.4z"/>
    
    <!-- Saga -->
    <path data-code="41" class="prefecture" d="M255.5 504.2l-0.3 0.6-0.2 0.8-0.1 0.9 0.1 0.9 0.3 0.8 0.5 0.7 0.7 0.5 0.8 0.3 0.9 0.1 0.9-0.1 0.8-0.3 0.7-0.5 0.5-0.7 0.3-0.8 0.1-0.9-0.1-0.9-0.2-0.8-0.3-0.6-0.5-0.5-0.7-0.4-0.8-0.3-0.9-0.1-0.9 0.1-0.8 0.3z"/>
    
    <!-- Nagasaki -->
    <path data-code="42" class="prefecture" d="M254.2 517.3l-0.4 0.8-0.2 0.9 0 1 0.2 0.9 0.4 0.8 0.6 0.6 0.8 0.4 0.9 0.2 1 0 0.9-0.2 0.8-0.4 0.6-0.6 0.4-0.8 0.2-0.9 0-1-0.2-0.9-0.4-0.8-0.6-0.6-0.8-0.4-0.9-0.2-1 0-0.9 0.2-0.8 0.4z"/>
    
    <!-- Kumamoto -->
    <path data-code="43" class="prefecture" d="M279.6 522.3l-0.4 0.8-0.2 0.9 0 1 0.2 0.9 0.4 0.8 0.6 0.6 0.8 0.4 0.9 0.2 1 0 0.9-0.2 0.8-0.4 0.6-0.6 0.4-0.8 0.2-0.9 0-1-0.2-0.9-0.4-0.8-0.6-0.6-0.8-0.4-0.9-0.2-1 0-0.9 0.2-0.8 0.4z"/>
    
    <!-- Oita -->
    <path data-code="44" class="prefecture" d="M295.3 512l-0.3 0.7-0.2 0.8-0.1 0.9 0.1 0.9 0.3 0.8 0.5 0.7 0.7 0.5 0.8 0.3 0.9 0.1 0.9-0.1 0.8-0.3 0.7-0.5 0.5-0.7 0.3-0.8 0.1-0.9-0.1-0.9-0.2-0.8-0.4-0.7-0.6-0.5-0.8-0.3-0.9-0.1-0.9 0.1-0.8 0.3z"/>
    
    <!-- Miyazaki -->
    <path data-code="45" class="prefecture" d="M292.2 539.2l-0.3 0.7-0.2 0.8-0.1 0.9 0.1 0.9 0.3 0.8 0.5 0.7 0.7 0.5 0.8 0.3 0.9 0.1 0.9-0.1 0.8-0.3 0.7-0.5 0.5-0.7 0.3-0.8 0.1-0.9-0.1-0.9-0.2-0.8-0.4-0.7-0.6-0.5-0.8-0.3-0.9-0.1-0.9 0.1-0.8 0.3z"/>
    
    <!-- Kagoshima -->
    <path data-code="46" class="prefecture" d="M267.4 553.1l-0.4 0.8-0.2 0.9 0 1 0.2 0.9 0.4 0.8 0.6 0.6 0.8 0.4 0.9 0.2 1 0 0.9-0.2 0.8-0.4 0.6-0.6 0.4-0.8 0.2-0.9 0-1-0.2-0.9-0.4-0.8-0.6-0.6-0.8-0.4-0.9-0.2-1 0-0.9 0.2-0.8 0.4z"/>
    
    <!-- Okinawa -->
    <path data-code="47" class="prefecture" d="M197.1 730.3l-0.4 0.8-0.2 0.9 0 1 0.2 0.9 0.4 0.8 0.6 0.6 0.8 0.4 0.9 0.2 1 0 0.9-0.2 0.8-0.4 0.6-0.6 0.4-0.8 0.2-0.9 0-1-0.2-0.9-0.4-0.8-0.6-0.6-0.8-0.4-0.9-0.2-1 0-0.9 0.2-0.8 0.4z"/>
  </g>
</svg>
