<?xml version="1.0" encoding="UTF-8"?>
<svg xmlns="http://www.w3.org/2000/svg" viewBox="0 0 2090 2600" width="2090" height="2600">
  <defs>
    <style>
      .prefecture { fill: #f5f5f0; stroke: #a8a8a0; stroke-width: 1.5; }
    </style>
  </defs>
  <g id="prefectures">
    <!-- Hokkaido Region -->
    <path id="JP-01" data-code="01" class="prefecture" d="M1450.8,125.3c-12.6,9.8-27.5,15.2-42.8,15.2h-22.4c-17.6,0-34.4-7.2-46.4-19.2l-68-68c-12-12-19.2-28.8-19.2-46.4V-15.5c0-36,29.2-65.2,65.2-65.2h22.4c17.6,0,34.4,7.2,46.4,19.2l68,68c12,12,19.2,28.8,19.2,46.4v22.4C1513.2,92.9,1474.8,108.5,1450.8,125.3z M1644.5,713.6c-2.4,13.6-10.4,25.6-21.6,33.6l-101.6,76c-23.2,17.6-56,12.8-73.6-10.4l-68-91.2c-8-10.4-12-24-12-36.8v-120c0-35.2,28.8-64,64-64h128c35.2,0,64,28.8,64,64v129.6C1623.7,699.2,1621.3,706.8,1644.5,713.6z"/>
    
    <!-- Tohoku Region -->
    <path id="JP-02" data-code="02" class="prefecture" d="M1569.6,902.4l-51.2,25.6c-16,8-35.2,8-51.2,0l-51.2-25.6c-23.2-12-38.4-36-38.4-62.4v-68c0-38.4,31.2-69.6,69.6-69.6h91.2c38.4,0,69.6,31.2,69.6,69.6v68C1608,866.4,1592.8,890.4,1569.6,902.4z"/>
    
    <path id="JP-03" data-code="03" class="prefecture" d="M1618.4,1081.6c-9.6,20-29.6,32.8-52,32.8h-76.8c-22.4,0-42.4-12.8-52-32.8l-38.4-76.8c-9.6-19.2-9.6-42.4,0-62.4l38.4-76.8c9.6-20,29.6-32.8,52-32.8h76.8c22.4,0,42.4,12.8,52,32.8l38.4,76.8c9.6,19.2,9.6,42.4,0,62.4L1618.4,1081.6z"/>
    
    <path id="JP-04" data-code="04" class="prefecture" d="M1646.4,1266.4c-6.4,24.8-28,42.4-53.6,42.4h-81.6c-25.6,0-48-17.6-53.6-42.4l-23.2-92.8c-5.6-23.2,0.8-47.2,17.6-64l57.6-57.6c22.4-22.4,58.4-22.4,80.8,0l57.6,57.6c16.8,16.8,23.2,40.8,17.6,64L1646.4,1266.4z"/>
    
    <path id="JP-05" data-code="05" class="prefecture" d="M1401.6,949.6l-44.8,22.4c-20,9.6-43.2,9.6-62.4,0l-44.8-22.4c-20-9.6-32.8-29.6-32.8-52v-64c0-31.2,25.6-56.8,56.8-56.8h104c31.2,0,56.8,25.6,56.8,56.8v64C1434.4,920,1421.6,940,1401.6,949.6z"/>
    
    <path id="JP-06" data-code="06" class="prefecture" d="M1414.4,1140c-4.8,18.4-20.8,31.2-40,31.2h-108.8c-19.2,0-35.2-12.8-40-31.2l-19.2-76.8c-4.8-18.4,0.8-37.6,15.2-51.2l54.4-54.4c17.6-17.6,45.6-17.6,63.2,0l54.4,54.4c14.4,14.4,20,32.8,15.2,51.2L1414.4,1140z"/>
    
    <path id="JP-07" data-code="07" class="prefecture" d="M1636,1430.4c-12,17.6-32,28-53.6,28h-92.8c-21.6,0-41.6-10.4-53.6-28l-59.2-88.8c-12-17.6-12-40.8,0-58.4l59.2-88.8c12-17.6,32-28,53.6-28h92.8c21.6,0,41.6,10.4,53.6,28l59.2,88.8c12,17.6,12,40.8,0,58.4L1636,1430.4z"/>
    
    <!-- Kanto Region -->
    <path id="JP-08" data-code="08" class="prefecture" d="M1718.4,1700c-8.8,25.6-32.8,43.2-60,43.2h-92.8c-27.2,0-51.2-17.6-60-43.2l-34.4-103.2c-8.8-25.6,0.8-53.6,23.2-69.6l80.8-60.8c22.4-16.8,52.8-16.8,75.2,0l80.8,60.8c22.4,16.8,32,44,23.2,69.6L1718.4,1700z"/>
    
    <path id="JP-09" data-code="09" class="prefecture" d="M1597.6,1521.6c-16.8,12.8-38.4,20-60,20h-67.2c-28,0-53.6-14.4-68-38.4l-44.8-75.2c-14.4-24-14.4-53.6,0-77.6l44.8-75.2c14.4-24,40-38.4,68-38.4h67.2c28,0,53.6,14.4,68,38.4l44.8,75.2c14.4,24,14.4,53.6,0,77.6L1597.6,1521.6z"/>
    
    <path id="JP-10" data-code="10" class="prefecture" d="M1420,1465.6c-14.4,14.4-33.6,22.4-53.6,22.4h-76.8c-20,0-39.2-8-53.6-22.4l-53.6-53.6c-14.4-14.4-22.4-33.6-22.4-53.6v-76.8c0-20,8-39.2,22.4-53.6l53.6-53.6c14.4-14.4,33.6-22.4,53.6-22.4h76.8c20,0,39.2,8,53.6,22.4l53.6,53.6c14.4,14.4,22.4,33.6,22.4,53.6v76.8c0,20-8,39.2-22.4,53.6L1420,1465.6z"/>
    
    <path id="JP-11" data-code="11" class="prefecture" d="M1645.6,1806.4c-18.4,7.2-38.4,7.2-56.8,0l-84.8-33.6c-28-11.2-46.4-38.4-46.4-68.8v-92c0-40.8,32.8-73.6,73.6-73.6h92c40.8,0,73.6,32.8,73.6,73.6v92c0,30.4-18.4,57.6-46.4,68.8L1645.6,1806.4z"/>
    
    <path id="JP-12" data-code="12" class="prefecture" d="M1937.6,1858.4c-12,22.4-35.2,36-60.8,36h-113.6c-25.6,0-48.8-13.6-60.8-36l-56.8-106.4c-12-22.4-12-48.8,0-71.2l56.8-106.4c12-22.4,35.2-36,60.8-36h113.6c25.6,0,48.8,13.6,60.8,36l56.8,106.4c12,22.4,12,48.8,0,71.2L1937.6,1858.4z"/>
    
    <path id="JP-13" data-code="13" class="prefecture" d="M1838.4,2020.8c-15.2,16.8-36.8,26.4-60,26.4h-100.8c-23.2,0-44.8-9.6-60-26.4l-74.4-84c-15.2-16.8-23.2-39.2-23.2-62.4v-100.8c0-23.2,8-45.6,23.2-62.4l74.4-84c15.2-16.8,36.8-26.4,60-26.4h100.8c23.2,0,44.8,9.6,60,26.4l74.4,84c15.2,16.8,23.2,39.2,23.2,62.4v100.8c0,23.2-8,45.6-23.2,62.4L1838.4,2020.8z"/>
    
    <path id="JP-14" data-code="14" class="prefecture" d="M1814.4,2188c-17.6,12-39.2,18.4-61.6,18.4h-81.6c-30.4,0-58.4-15.2-75.2-40l-65.6-98.4c-16.8-24.8-16.8-56.8,0-81.6l65.6-98.4c16.8-24.8,44.8-40,75.2-40h81.6c30.4,0,58.4,15.2,75.2,40l65.6,98.4c16.8,24.8,16.8,56.8,0,81.6l-65.6,98.4C1848.8,2176.8,1827.2,2186.4,1814.4,2188z"/>
    
    <!-- Chubu Region -->
    <path id="JP-15" data-code="15" class="prefecture" d="M1249.6,1282.4c-22.4,11.2-48,11.2-70.4,0l-89.6-44.8c-22.4-11.2-36.8-33.6-36.8-58.4v-118.4c0-36,29.2-64.8,64.8-64.8h105.6c36,0,64.8,29.2,64.8,64.8v118.4c0,24.8-14.4,47.2-36.8,58.4L1249.6,1282.4z"/>
    
    <path id="JP-16" data-code="16" class="prefecture" d="M1198.4,1469.6c-14.4,20-37.6,32-62.4,32h-100c-23.2,0-44.8-11.2-58.4-29.6l-68-95.2c-13.6-19.2-16-44-5.6-65.6l52-104c10.4-20.8,32-34.4,55.2-34.4h108c26.4,0,49.6,16,59.2,40.8l48,121.6C1235.2,1404.8,1220.8,1436,1198.4,1469.6z"/>
    
    <path id="JP-17" data-code="17" class="prefecture" d="M1153.6,1666.4c-16.8,18.4-40.8,28.8-65.6,28.8h-93.6c-24.8,0-48-10.4-64.8-28.8l-81.6-91.2c-16.8-18.4-25.6-42.4-25.6-67.2v-111.2c0-28,11.2-54.4,31.2-74.4l76.8-76.8c20-20,46.4-31.2,74.4-31.2h93.6c28,0,54.4,11.2,74.4,31.2l76.8,76.8c20,20,31.2,46.4,31.2,74.4v111.2c0,24.8-8.8,48.8-25.6,67.2L1153.6,1666.4z"/>
    
    <path id="JP-18" data-code="18" class="prefecture" d="M1122.4,1902.4c-19.2,15.2-43.2,24-68,24h-108.8c-24.8,0-48.8-8.8-68-24l-95.2-76c-19.2-15.2-30.4-38.4-30.4-63.2v-127.2c0-24.8,11.2-48,30.4-63.2l95.2-76c19.2-15.2,43.2-24,68-24h108.8c24.8,0,48.8,8.8,68,24l95.2,76c19.2,15.2,30.4,38.4,30.4,63.2v127.2c0,24.8-11.2,48-30.4,63.2L1122.4,1902.4z"/>
    
    <path id="JP-19" data-code="19" class="prefecture" d="M1629.6,1676c-20.8,10.4-44.8,10.4-65.6,0l-78.4-39.2c-20.8-10.4-33.6-31.2-33.6-54.4v-104c0-33.6,27.2-60.8,60.8-60.8h91.2c33.6,0,60.8,27.2,60.8,60.8v104c0,23.2-12.8,44-33.6,54.4L1629.6,1676z"/>
    
    <path id="JP-20" data-code="20" class="prefecture" d="M1422.4,1646.4c-17.6,17.6-41.6,28-66.4,28h-127.2c-24.8,0-48.8-9.6-66.4-28l-92.8-92.8c-17.6-17.6-28-41.6-28-66.4v-127.2c0-24.8,9.6-48.8,28-66.4l92.8-92.8c17.6-17.6,41.6-28,66.4-28h127.2c24.8,0,48.8,9.6,66.4,28l92.8,92.8c17.6,17.6,28,41.6,28,66.4v127.2c0,24.8-9.6,48.8-28,66.4L1422.4,1646.4z"/>
    
    <path id="JP-21" data-code="21" class="prefecture" d="M1289.6,1828c-20,14.4-44,22.4-68.8,22.4h-113.6c-24.8,0-48.8-8-68.8-22.4l-100-72c-20-14.4-32-37.6-32-62.4v-131.2c0-24.8,12-48,32-62.4l100-72c20-14.4,44-22.4,68.8-22.4h113.6c24.8,0,48.8,8,68.8,22.4l100,72c20,14.4,32,37.6,32,62.4v131.2c0,24.8-12,48-32,62.4L1289.6,1828z"/>
    
    <path id="JP-22" data-code="22" class="prefecture" d="M1649.6,2018.4c-12.8,25.6-38.4,41.6-67.2,41.6h-132.8c-28.8,0-54.4-16-67.2-41.6l-66.4-132.8c-12.8-25.6-12.8-55.2,0-80.8l66.4-132.8c12.8-25.6,38.4-41.6,67.2-41.6h132.8c28.8,0,54.4,16,67.2,41.6l66.4,132.8c12.8,25.6,12.8,55.2,0,80.8L1649.6,2018.4z"/>
    
    <path id="JP-23" data-code="23" class="prefecture" d="M1449.6,2030.4c-18.4,20.8-44.8,32.8-72.8,32.8h-113.6c-28,0-54.4-12-72.8-32.8l-90.4-103.2c-18.4-20.8-28-47.2-28-75.2v-132.8c0-28,10.4-54.4,28-75.2l90.4-103.2c18.4-20.8,44.8-32.8,72.8-32.8h113.6c28,0,54.4,12,72.8,32.8l90.4,103.2c18.4,20.8,28,47.2,28,75.2v132.8c0,28-10.4,54.4-28,75.2L1449.6,2030.4z"/>
    
    <path id="JP-24" data-code="24" class="prefecture" d="M1534.4,2250.4c-21.6,16.8-48,26.4-76,26.4h-100.8c-28,0-54.4-9.6-76-26.4l-105.6-81.6c-21.6-16.8-34.4-42.4-34.4-69.6v-134.4c0-27.2,12.8-52.8,34.4-69.6l105.6-81.6c21.6-16.8,48-26.4,76-26.4h100.8c28,0,54.4,9.6,76,26.4l105.6,81.6c21.6,16.8,34.4,42.4,34.4,69.6v134.4c0,27.2-12.8,52.8-34.4,69.6L1534.4,2250.4z"/>
    
    <path id="JP-25" data-code="25" class="prefecture" d="M1166.4,2025.6c-16.8,22.4-43.2,35.2-71.2,35.2h-110.4c-28,0-54.4-12.8-71.2-35.2l-84.8-112.8c-16.8-22.4-19.2-52-6.4-76.8l64.8-129.6c12.8-25.6,39.2-41.6,68-41.6h116c28.8,0,55.2,16,68,41.6l64.8,129.6c12.8,24.8,10.4,54.4-6.4,76.8L1166.4,2025.6z"/>
    
    <!-- Kinki Region -->
    <path id="JP-26" data-code="26" class="prefecture" d="M1092,2222.4c-20.8,18.4-47.2,28.8-75.2,28.8h-113.6c-28,0-54.4-10.4-75.2-28.8l-102.4-91.2c-20.8-18.4-32-44.8-32-72v-142.4c0-27.2,12-53.6,32-72l102.4-91.2c20.8-18.4,47.2-28.8,75.2-28.8h113.6c28,0,54.4,10.4,75.2,28.8l102.4,91.2c20.8,18.4,32,44.8,32,72v142.4c0,27.2-12,53.6-32,72L1092,2222.4z"/>
    
    <path id="JP-27" data-code="27" class="prefecture" d="M1178.4,2420c-22.4,16-49.6,24.8-77.6,24.8h-121.6c-28,0-55.2-8.8-77.6-24.8l-113.6-80.8c-22.4-16-36-41.6-36-68.8v-156.8c0-27.2,13.6-52.8,36-68.8l113.6-80.8c22.4-16,49.6-24.8,77.6-24.8h121.6c28,0,55.2,8.8,77.6,24.8l113.6,80.8c22.4,16,36,41.6,36,68.8v156.8c0,27.2-13.6,52.8-36,68.8L1178.4,2420z"/>
    
    <path id="JP-28" data-code="28" class="prefecture" d="M838.4,2282.4c-24.8,12.8-53.6,12.8-78.4,0l-124.8-64.8c-24.8-12.8-40-38.4-40-66.4v-164.8c0-40,32.8-72.8,72.8-72.8h142.4c40,0,72.8,32.8,72.8,72.8v164.8c0,28-15.2,53.6-40,66.4L838.4,2282.4z"/>
    
    <path id="JP-29" data-code="29" class="prefecture" d="M1353.6,2518.4c-19.2,20-45.6,31.2-73.6,31.2h-118.4c-28,0-54.4-11.2-73.6-31.2l-94.4-100c-19.2-20-29.6-46.4-29.6-74.4v-148.8c0-28,10.4-54.4,29.6-74.4l94.4-100c19.2-20,45.6-31.2,73.6-31.2h118.4c28,0,54.4,11.2,73.6,31.2l94.4,100c19.2,20,29.6,46.4,29.6,74.4v148.8c0,28-10.4,54.4-29.6,74.4L1353.6,2518.4z"/>
    
    <path id="JP-30" data-code="30" class="prefecture" d="M1334.4,2761.6c-23.2,17.6-51.2,27.2-80.8,27.2h-107.2c-29.6,0-57.6-9.6-80.8-27.2l-116-88c-23.2-17.6-36.8-44.8-36.8-73.6v-161.6c0-28.8,13.6-56,36.8-73.6l116-88c23.2-17.6,51.2-27.2,80.8-27.2h107.2c29.6,0,57.6,9.6,80.8,27.2l116,88c23.2,17.6,36.8,44.8,36.8,73.6v161.6c0,28.8-13.6,56-36.8,73.6L1334.4,2761.6z"/>
    
    <!-- Chugoku Region -->
    <path id="JP-31" data-code="31" class="prefecture" d="M706.6,2217.6c-18.4,21.6-45.6,34.4-74.4,34.4h-126.4c-28.8,0-56-12.8-74.4-34.4l-93.6-111.2c-18.4-21.6-28-49.6-28-78.4v-153.6c0-28.8,10.4-56.8,28-78.4l93.6-111.2c18.4-21.6,45.6-34.4,74.4-34.4h126.4c28.8,0,56,12.8,74.4,34.4l93.6,111.2c18.4,21.6,28,49.6,28,78.4v153.6c0,28.8-10.4,56.8-28,78.4L706.6,2217.6z"/>
    
    <path id="JP-32" data-code="32" class="prefecture" d="M598.4,2405.6c-20.8,19.2-48.8,30.4-77.6,30.4h-131.2c-28.8,0-56.8-11.2-77.6-30.4l-105.6-97.6c-20.8-19.2-32.8-46.4-32.8-74.4v-163.2c0-28,12-55.2,32.8-74.4l105.6-97.6c20.8-19.2,48.8-30.4,77.6-30.4h131.2c28.8,0,56.8,11.2,77.6,30.4l105.6,97.6c20.8,19.2,32.8,46.4,32.8,74.4v163.2c0,28-12,55.2-32.8,74.4L598.4,2405.6z"/>
    
    <path id="JP-33" data-code="33" class="prefecture" d="M916,2457.6c-21.6,17.6-48,27.2-76,27.2h-121.6c-28,0-54.4-9.6-76-27.2l-113.6-91.2c-21.6-17.6-34.4-44-34.4-71.2v-158.4c0-27.2,12.8-53.6,34.4-71.2l113.6-91.2c21.6-17.6,48-27.2,76-27.2h121.6c28,0,54.4,9.6,76,27.2l113.6,91.2c21.6,17.6,34.4,44,34.4,71.2v158.4c0,27.2-12.8,53.6-34.4,71.2L916,2457.6z"/>
    
    <path id="JP-34" data-code="34" class="prefecture" d="M726.4,2644c-23.2,16.8-52,26.4-81.6,26.4h-115.2c-29.6,0-58.4-9.6-81.6-26.4l-121.6-91.2c-23.2-16.8-36.8-44-36.8-72.8v-168c0-28.8,13.6-56,36.8-72.8l121.6-91.2c23.2-16.8,52-26.4,81.6-26.4h115.2c29.6,0,58.4,9.6,81.6,26.4l121.6,91.2c23.2,16.8,36.8,44,36.8,72.8v168c0,28.8-13.6,56-36.8,72.8L726.4,2644z"/>
    
    <path id="JP-35" data-code="35" class="prefecture" d="M633.6,2878.4c-24.8,15.2-54.4,24-84.8,24h-121.6c-30.4,0-60-8.8-84.8-24l-129.6-81.6c-24.8-15.2-40-42.4-40-71.2v-179.2c0-28.8,15.2-56,40-71.2l129.6-81.6c24.8-15.2,54.4-24,84.8-24h121.6c30.4,0,60,8.8,84.8,24l129.6,81.6c24.8,15.2,40,42.4,40,71.2v179.2c0,28.8-15.2,56-40,71.2L633.6,2878.4z"/>
    
    <!-- Shikoku Region -->
    <path id="JP-36" data-code="36" class="prefecture" d="M1086.4,2796c-20,21.6-48,33.6-78.4,33.6h-129.6c-30.4,0-58.4-12-78.4-33.6l-100.8-112.8c-20-21.6-30.4-50.4-30.4-79.2v-164.8c0-28.8,11.2-57.6,30.4-79.2l100.8-112.8c20-21.6,48-33.6,78.4-33.6h129.6c30.4,0,58.4,12,78.4,33.6l100.8,112.8c20,21.6,30.4,50.4,30.4,79.2v164.8c0,28.8-11.2,57.6-30.4,79.2L1086.4,2796z"/>
    
    <path id="JP-37" data-code="37" class="prefecture" d="M1034.4,2633.6c-17.6,23.2-45.6,36.8-76,36.8h-124.8c-29.6,0-57.6-13.6-75.2-36.8l-89.6-119.2c-17.6-23.2-22.4-52.8-12-79.2l52-131.2c10.4-26.4,35.2-44,64-44h134.4c28.8,0,53.6,17.6,64,44l52,131.2c10.4,26.4,5.6,56-12,79.2L1034.4,2633.6z"/>
    
    <path id="JP-38" data-code="38" class="prefecture" d="M865.6,2838.4c-22.4,19.2-51.2,29.6-80.8,29.6h-129.6c-29.6,0-58.4-10.4-80.8-29.6l-110.4-97.6c-22.4-19.2-35.2-47.2-35.2-76.8v-163.2c0-29.6,12.8-57.6,35.2-76.8l110.4-97.6c22.4-19.2,51.2-29.6,80.8-29.6h129.6c29.6,0,58.4,10.4,80.8,29.6l110.4,97.6c22.4,19.2,35.2,47.2,35.2,76.8v163.2c0,29.6-12.8,57.6-35.2,76.8L865.6,2838.4z"/>
    
    <path id="JP-39" data-code="39" class="prefecture" d="M1041.6,3020c-24,17.6-53.6,28-84,28h-123.2c-30.4,0-60-10.4-84-28l-123.2-93.6c-24-17.6-38.4-45.6-38.4-75.2v-177.6c0-29.6,14.4-57.6,38.4-75.2l123.2-93.6c24-17.6,53.6-28,84-28h123.2c30.4,0,60,10.4,84,28l123.2,93.6c24,17.6,38.4,45.6,38.4,75.2v177.6c0,29.6-14.4,57.6-38.4,75.2L1041.6,3020z"/>
    
    <!-- Kyushu Region -->
    <path id="JP-40" data-code="40" class="prefecture" d="M284,3153.6c-25.6,14.4-56,22.4-87.2,22.4h-137.6c-31.2,0-61.6-8-87.2-22.4l-137.6-79.2c-25.6-14.4-41.6-41.6-41.6-71.2v-188.8c0-29.6,16-56.8,41.6-71.2l137.6-79.2c25.6-14.4,56-22.4,87.2-22.4h137.6c31.2,0,61.6,8,87.2,22.4l137.6,79.2c25.6,14.4,41.6,41.6,41.6,71.2v188.8c0,29.6-16,56.8-41.6,71.2L284,3153.6z"/>
    
    <path id="JP-41" data-code="41" class="prefecture" d="M222.4,3332c-21.6,20-50.4,31.2-80.8,31.2h-136c-30.4,0-59.2-11.2-80.8-31.2l-108-101.6c-21.6-20-33.6-48-33.6-77.6v-169.6c0-29.6,12-57.6,33.6-77.6l108-101.6c21.6-20,50.4-31.2,80.8-31.2h136c30.4,0,59.2,11.2,80.8,31.2l108,101.6c21.6,20,33.6,48,33.6,77.6v169.6c0,29.6-12,57.6-33.6,77.6L222.4,3332z"/>
    
    <path id="JP-42" data-code="42" class="prefecture" d="M161.6,3518.4c-27.2,13.6-57.6,20.8-89.6,20.8h-145.6c-32,0-62.4-7.2-89.6-20.8l-145.6-73.6c-27.2-13.6-44-40.8-44-70.4v-195.2c0-29.6,16.8-56.8,44-70.4l145.6-73.6c27.2-13.6,57.6-20.8,89.6-20.8h145.6c32,0,62.4,7.2,89.6,20.8l145.6,73.6c27.2,13.6,44,40.8,44,70.4v195.2c0,29.6-16.8,56.8-44,70.4L161.6,3518.4z"/>
    
    <path id="JP-43" data-code="43" class="prefecture" d="M422.4,3452c-24.8,16.8-55.2,26.4-86.4,26.4h-132.8c-31.2,0-61.6-9.6-86.4-26.4l-132.8-89.6c-24.8-16.8-40-44.8-40-74.4v-184c0-29.6,15.2-57.6,40-74.4l132.8-89.6c24.8-16.8,55.2-26.4,86.4-26.4h132.8c31.2,0,61.6,9.6,86.4,26.4l132.8,89.6c24.8,16.8,40,44.8,40,74.4v184c0,29.6-15.2,57.6-40,74.4L422.4,3452z"/>
    
    <path id="JP-44" data-code="44" class="prefecture" d="M568,3289.6c-23.2,18.4-52,28.8-82.4,28.8h-134.4c-30.4,0-59.2-10.4-82.4-28.8l-118.4-96c-23.2-18.4-36.8-46.4-36.8-76v-176c0-29.6,13.6-57.6,36.8-76l118.4-96c23.2-18.4,52-28.8,82.4-28.8h134.4c30.4,0,59.2,10.4,82.4,28.8l118.4,96c23.2,18.4,36.8,46.4,36.8,76v176c0,29.6-13.6,57.6-36.8,76L568,3289.6z"/>
    
    <path id="JP-45" data-code="45" class="prefecture" d="M506.4,3588c-25.6,16-56.8,24.8-88.8,24.8h-139.2c-32,0-63.2-8.8-88.8-24.8l-139.2-86.4c-25.6-16-41.6-44-41.6-74.4v-188.8c0-30.4,16-58.4,41.6-74.4l139.2-86.4c25.6-16,56.8-24.8,88.8-24.8h139.2c32,0,63.2,8.8,88.8,24.8l139.2,86.4c25.6,16,41.6,44,41.6,74.4v188.8c0,30.4-16,58.4-41.6,74.4L506.4,3588z"/>
    
    <path id="JP-46" data-code="46" class="prefecture" d="M436,3849.6c-28,14.4-60,21.6-93.6,21.6h-152c-33.6,0-65.6-7.2-93.6-21.6l-152-77.6c-28-14.4-45.6-43.2-45.6-73.6v-203.2c0-30.4,17.6-59.2,45.6-73.6l152-77.6c28-14.4,60-21.6,93.6-21.6h152c33.6,0,65.6,7.2,93.6,21.6l152,77.6c28,14.4,45.6,43.2,45.6,73.6v203.2c0,30.4-17.6,59.2-45.6,73.6L436,3849.6z"/>
    
    <path id="JP-47" data-code="47" class="prefecture" d="M249.6,4446.4c-22.4,22.4-52.8,35.2-84.8,35.2h-145.6c-32,0-62.4-12.8-84.8-35.2l-113.6-113.6c-22.4-22.4-35.2-52.8-35.2-84.8v-145.6c0-32,12.8-62.4,35.2-84.8l113.6-113.6c22.4-22.4,52.8-35.2,84.8-35.2h145.6c32,0,62.4,12.8,84.8,35.2l113.6,113.6c22.4,22.4,35.2,52.8,35.2,84.8v145.6c0,32-12.8,62.4-35.2,84.8L249.6,4446.4z"/>
  </g>
</svg>
